<svg width="48" height="48" viewBox="0 0 48 48" fill="none" xmlns="http://www.w3.org/2000/svg">
<mask id="mask0_97_44069" style="mask-type:alpha" maskUnits="userSpaceOnUse" x="10" y="10" width="29" height="28">
<path d="M24.0039 10C24.2973 10.0002 24.5524 10.2007 24.624 10.4854C24.8436 11.3566 25.1299 12.2065 25.4863 13.0332C26.4149 15.1903 27.6891 17.0786 29.3066 18.6963C30.925 20.3139 32.8127 21.588 34.9697 22.5166C35.7971 22.873 36.6465 23.1593 37.5176 23.3789C37.8024 23.4505 38.0039 23.7064 38.0039 24C38.0039 24.2936 37.8024 24.5495 37.5176 24.6211C36.6464 24.8407 35.7963 25.127 34.9697 25.4834C32.8127 26.412 30.9243 27.6861 29.3066 29.3037C27.689 30.9222 26.4149 32.8097 25.4863 34.9668C25.1299 35.7943 24.8436 36.6434 24.624 37.5146C24.5524 37.7994 24.2973 37.9998 24.0039 38C23.7103 38 23.4544 37.7995 23.3828 37.5146C23.1632 36.6434 22.877 35.7935 22.5205 34.9668C21.5919 32.8097 20.3186 30.9214 18.7002 29.3037C17.0818 27.6861 15.1942 26.412 13.0371 25.4834C12.2097 25.127 11.3604 24.8407 10.4893 24.6211C10.2044 24.5495 10.0039 24.2936 10.0039 24C10.0039 23.7064 10.2044 23.4505 10.4893 23.3789C11.3604 23.1593 12.2105 22.873 13.0371 22.5166C15.1942 21.588 17.0826 20.3139 18.7002 18.6963C20.3178 17.0786 21.5919 15.1903 22.5205 13.0332C22.8769 12.2057 23.1632 11.3566 23.3828 10.4854C23.4545 10.2005 23.7103 10 24.0039 10Z" fill="white"/>
</mask>
<g mask="url(#mask0_97_44069)">
<g filter="url(#filter0_f_97_44069)">
<ellipse cx="6.21621" cy="7.31351" rx="6.21621" ry="7.31351" transform="matrix(0.942341 0.334654 -0.334652 0.942342 6.50781 16.0261)" fill="#FFE432"/>
</g>
<g filter="url(#filter1_f_97_44069)">
<ellipse cx="21.8366" cy="11.1177" rx="8.04756" ry="8.22449" fill="#FC413D"/>
</g>
<g filter="url(#filter2_f_97_44069)">
<ellipse cx="18.1749" cy="34.7612" rx="8.41074" ry="10.8958" transform="rotate(-2.79865 18.1749 34.7612)" fill="#00B95C"/>
</g>
<g filter="url(#filter3_f_97_44069)">
<ellipse cx="18.1749" cy="34.7612" rx="8.41074" ry="10.8958" transform="rotate(-2.79865 18.1749 34.7612)" fill="#00B95C"/>
</g>
<g filter="url(#filter4_f_97_44069)">
<ellipse cx="18.6311" cy="34.2548" rx="8.2438" ry="9.07567" transform="rotate(-31.3178 18.6311 34.2548)" fill="#00B95C"/>
</g>
<g filter="url(#filter5_f_97_44069)">
<ellipse cx="39.0682" cy="20.9299" rx="7.91582" ry="7.62264" fill="#3983FF"/>
</g>
<g filter="url(#filter6_f_97_44069)">
<ellipse cx="9.15658" cy="9.65802" rx="9.15658" ry="9.65802" transform="matrix(0.795985 0.605316 -0.605314 0.795987 8.76172 6.74994)" fill="#FBBC04"/>
</g>
<g filter="url(#filter7_f_97_44069)">
<ellipse cx="10.5574" cy="9.75282" rx="10.5574" ry="9.75282" transform="matrix(0.824033 0.566542 -0.566539 0.824035 27.3398 10.138)" fill="#2E86FF"/>
</g>
<g filter="url(#filter8_f_97_44069)">
<path d="M33.7187 8.99387C34.9411 10.6558 33.3704 13.8871 30.2106 16.2113C27.0507 18.5354 23.4982 19.0722 22.2758 17.4103C21.0534 15.7483 22.6241 12.517 25.784 10.1929C28.9439 7.86875 32.4964 7.33194 33.7187 8.99387Z" fill="#749BFF"/>
</g>
<g filter="url(#filter9_f_97_44069)">
<ellipse cx="18.5791" cy="11.4492" rx="12.0687" ry="7.50222" transform="rotate(-42.848 18.5791 11.4492)" fill="#FC413D"/>
</g>
<g filter="url(#filter10_f_97_44069)">
<ellipse cx="15.8591" cy="30.1712" rx="6.46713" ry="3.76095" transform="rotate(35.592 15.8591 30.1712)" fill="#FFEE48"/>
</g>
</g>
<defs>
<filter id="filter0_f_97_44069" x="1.97452" y="16.2054" width="15.8869" height="17.5855" filterUnits="userSpaceOnUse" color-interpolation-filters="sRGB">
<feFlood flood-opacity="0" result="BackgroundImageFix"/>
<feBlend mode="normal" in="SourceGraphic" in2="BackgroundImageFix" result="shape"/>
<feGaussianBlur stdDeviation="0.795942" result="effect1_foregroundBlur_97_44069"/>
</filter>
<filter id="filter1_f_97_44069" x="6.09313" y="-4.80268" width="31.4856" height="31.8408" filterUnits="userSpaceOnUse" color-interpolation-filters="sRGB">
<feFlood flood-opacity="0" result="BackgroundImageFix"/>
<feBlend mode="normal" in="SourceGraphic" in2="BackgroundImageFix" result="shape"/>
<feGaussianBlur stdDeviation="3.84797" result="effect1_foregroundBlur_97_44069"/>
</filter>
<filter id="filter2_f_97_44069" x="3.21552" y="17.3282" width="29.9205" height="34.866" filterUnits="userSpaceOnUse" color-interpolation-filters="sRGB">
<feFlood flood-opacity="0" result="BackgroundImageFix"/>
<feBlend mode="normal" in="SourceGraphic" in2="BackgroundImageFix" result="shape"/>
<feGaussianBlur stdDeviation="3.27115" result="effect1_foregroundBlur_97_44069"/>
</filter>
<filter id="filter3_f_97_44069" x="3.21552" y="17.3282" width="29.9205" height="34.866" filterUnits="userSpaceOnUse" color-interpolation-filters="sRGB">
<feFlood flood-opacity="0" result="BackgroundImageFix"/>
<feBlend mode="normal" in="SourceGraphic" in2="BackgroundImageFix" result="shape"/>
<feGaussianBlur stdDeviation="3.27115" result="effect1_foregroundBlur_97_44069"/>
</filter>
<filter id="filter4_f_97_44069" x="3.61005" y="18.8522" width="30.0416" height="30.8051" filterUnits="userSpaceOnUse" color-interpolation-filters="sRGB">
<feFlood flood-opacity="0" result="BackgroundImageFix"/>
<feBlend mode="normal" in="SourceGraphic" in2="BackgroundImageFix" result="shape"/>
<feGaussianBlur stdDeviation="3.27115" result="effect1_foregroundBlur_97_44069"/>
</filter>
<filter id="filter5_f_97_44069" x="24.9353" y="7.09022" width="28.2662" height="27.6795" filterUnits="userSpaceOnUse" color-interpolation-filters="sRGB">
<feFlood flood-opacity="0" result="BackgroundImageFix"/>
<feBlend mode="normal" in="SourceGraphic" in2="BackgroundImageFix" result="shape"/>
<feGaussianBlur stdDeviation="3.10855" result="effect1_foregroundBlur_97_44069"/>
</filter>
<filter id="filter6_f_97_44069" x="-4.77509" y="4.86767" width="29.9564" height="30.2251" filterUnits="userSpaceOnUse" color-interpolation-filters="sRGB">
<feFlood flood-opacity="0" result="BackgroundImageFix"/>
<feBlend mode="normal" in="SourceGraphic" in2="BackgroundImageFix" result="shape"/>
<feGaussianBlur stdDeviation="2.81723" result="effect1_foregroundBlur_97_44069"/>
</filter>
<filter id="filter7_f_97_44069" x="15.1752" y="9.10534" width="30.6769" height="30.1011" filterUnits="userSpaceOnUse" color-interpolation-filters="sRGB">
<feFlood flood-opacity="0" result="BackgroundImageFix"/>
<feBlend mode="normal" in="SourceGraphic" in2="BackgroundImageFix" result="shape"/>
<feGaussianBlur stdDeviation="2.5159" result="effect1_foregroundBlur_97_44069"/>
</filter>
<filter id="filter8_f_97_44069" x="17.3568" y="3.52573" width="21.2785" height="19.3527" filterUnits="userSpaceOnUse" color-interpolation-filters="sRGB">
<feFlood flood-opacity="0" result="BackgroundImageFix"/>
<feBlend mode="normal" in="SourceGraphic" in2="BackgroundImageFix" result="shape"/>
<feGaussianBlur stdDeviation="2.25127" result="effect1_foregroundBlur_97_44069"/>
</filter>
<filter id="filter9_f_97_44069" x="4.56034" y="-2.23476" width="28.0356" height="27.3679" filterUnits="userSpaceOnUse" color-interpolation-filters="sRGB">
<feFlood flood-opacity="0" result="BackgroundImageFix"/>
<feBlend mode="normal" in="SourceGraphic" in2="BackgroundImageFix" result="shape"/>
<feGaussianBlur stdDeviation="1.90147" result="effect1_foregroundBlur_97_44069"/>
</filter>
<filter id="filter10_f_97_44069" x="5.45337" y="20.6144" width="20.812" height="19.1135" filterUnits="userSpaceOnUse" color-interpolation-filters="sRGB">
<feFlood flood-opacity="0" result="BackgroundImageFix"/>
<feBlend mode="normal" in="SourceGraphic" in2="BackgroundImageFix" result="shape"/>
<feGaussianBlur stdDeviation="2.35339" result="effect1_foregroundBlur_97_44069"/>
</filter>
</defs>
</svg>
