<svg width="27" height="26" viewBox="0 0 27 26" fill="none" xmlns="http://www.w3.org/2000/svg">
<g clip-path="url(#clip0_97_44389)">
<path d="M21.5996 18.5721C21.1273 18.5721 20.7421 18.9553 20.7421 19.4296C20.7421 19.9039 20.3579 20.2871 19.8846 20.2871C19.4113 20.2871 19.0077 19.9029 19.0077 19.4296V15.0684C19.1111 14.8533 19.315 14.4824 19.315 14.2294V9.36824C19.315 6.40341 16.7897 4 13.8248 4C10.86 4 8.45661 6.40341 8.45661 9.36824V14.2294C8.45661 14.5726 8.58364 15.0233 8.7619 15.2866V19.4296C8.7619 19.9019 8.35723 20.2871 7.88495 20.2871C7.41267 20.2871 7.02747 19.9029 7.02747 19.4296C7.02747 18.9563 6.64432 18.5721 6.16998 18.5721C5.69565 18.5721 5.3125 18.9553 5.3125 19.4296C5.3125 20.787 6.37488 21.8914 7.70977 21.9826C7.76509 21.9939 7.82451 22 7.8829 22C7.9413 22 8.00072 21.9939 8.05604 21.9826C9.39195 21.8914 10.4011 20.787 10.4011 19.4296V16.0007C10.4011 16.0007 10.4082 15.2795 11.025 15.2795C11.6417 15.2795 11.6304 16.0007 11.6304 16.0007V19.3927C11.6304 19.865 11.9798 20.2502 12.4541 20.2502C12.9284 20.2502 13.2696 19.867 13.2696 19.3927V16.0007C13.2696 16.0007 13.1887 15.2795 13.8822 15.2795C14.5758 15.2795 14.499 16.0007 14.499 16.0007V19.3927C14.499 19.865 14.837 20.2502 15.3114 20.2502C15.7857 20.2502 16.1381 19.867 16.1381 19.3927V16.0007C16.1381 16.0007 16.1227 15.2795 16.7405 15.2795C17.3583 15.2795 17.3675 16.0007 17.3675 16.0007V19.4296C17.3675 20.787 18.3745 21.8914 19.7094 21.9826C19.7647 21.9939 19.8242 22 19.8826 22C19.941 22 20.0004 21.9939 20.0557 21.9826C21.3937 21.8914 22.456 20.787 22.456 19.4296C22.456 18.9573 22.0729 18.5721 21.5986 18.5721H21.5996ZM11.0291 13.7151C10.5558 13.7151 10.1716 13.2346 10.1716 12.6435C10.1716 12.0524 10.5558 11.5719 11.0291 11.5719C11.5024 11.5719 11.8865 12.0513 11.8865 12.6435C11.8865 13.2356 11.5024 13.7151 11.0291 13.7151ZM16.7425 13.7151C16.2692 13.7151 15.8851 13.2346 15.8851 12.6435C15.8851 12.0524 16.2692 11.5719 16.7425 11.5719C17.2159 11.5719 17.6 12.0513 17.6 12.6435C17.6 13.2356 17.2159 13.7151 16.7425 13.7151Z" fill="#715CD7"/>
</g>
<defs>
<clipPath id="clip0_97_44389">
<rect width="18" height="18" fill="white" transform="translate(4.83203 4)"/>
</clipPath>
</defs>
</svg>
