<svg width="63" height="62" viewBox="0 0 63 62" fill="none" xmlns="http://www.w3.org/2000/svg">
<path d="M37.6213 22.0404L39.2116 22.0701L43.5343 17.7474L43.7449 15.9168C40.3105 12.8604 35.7907 11.0001 30.8416 11.0001C21.8803 11.0001 14.323 17.094 12.082 25.356C12.5545 25.0293 13.5616 25.2723 13.5616 25.2723L22.2016 23.8521C22.2016 23.8521 22.6498 23.1177 22.8685 23.1636C24.8449 21.0009 27.688 19.6401 30.8416 19.6401C33.4066 19.6401 35.7664 20.5419 37.6213 22.0404Z" fill="#EA4335"/>
<path d="M49.6028 25.3676C48.6011 21.6632 46.5275 18.3962 43.7384 15.9149L37.6148 22.0385C40.0664 24.0203 41.6378 27.0497 41.6378 30.4409V31.5209C44.6159 31.5209 47.0378 33.9428 47.0378 36.9209C47.0378 39.899 44.6159 42.3209 41.6378 42.3209H30.8378L29.7578 43.4063V49.8863L30.8378 50.9609H41.6378C49.3787 50.9609 55.6778 44.6618 55.6778 36.9209C55.6778 32.1338 53.2694 27.9029 49.6028 25.3676Z" fill="#4285F4"/>
<path d="M20.0381 50.9608H30.83V42.3208H20.0381C19.2443 42.3208 18.4937 42.1453 17.8133 41.8348L16.2581 42.3127L11.9327 46.6381L11.5547 48.0988C13.9118 49.8916 16.8521 50.9608 20.0381 50.9608Z" fill="#34A853"/>
<path d="M20.04 22.88C12.2991 22.88 6 29.1791 6 36.92C6 41.4776 8.1843 45.5357 11.562 48.1007L17.8233 41.8394C15.9495 40.9916 14.64 39.107 14.64 36.92C14.64 33.9419 17.0619 31.52 20.04 31.52C22.227 31.52 24.1116 32.8295 24.9594 34.7033L31.2207 28.442C28.6557 25.0643 24.5976 22.88 20.04 22.88Z" fill="#FBBC05"/>
</svg>
