<?xml version="1.0" encoding="UTF-8"?>
<svg xmlns="http://www.w3.org/2000/svg" width="192" height="192" version="1.1" viewBox="0 0 192 192">
  <!-- Generator: Adobe Illustrator 28.7.1, SVG Export Plug-In . SVG Version: 1.2.0 Build 142)  -->
  <g>
    <g id="Standard_product_icon">
      <g id="art_layer">
        <path d="M96,32c-48.6,0-88,39.03-88,87.19v40.81h16.22v-3.22c0-19.53,15.98-35.36,35.69-35.36s35.69,15.83,35.69,35.36v3.22h16.22v-3.22c0-28.4-23.24-51.43-51.91-51.43-11.16,0-21.5,3.49-29.97,9.43,8.86-17.45,27.1-29.42,48.17-29.42,29.76,0,53.89,23.9,53.89,53.39v21.25h16.22v-21.25c0-38.36-31.39-69.46-70.11-69.46-17.41,0-33.34,6.29-45.6,16.7,12.04-22.55,35.95-37.91,63.49-37.91,39.64,0,71.78,31.84,71.78,71.12v40.81h16.22v-40.81c0-48.15-39.4-87.19-88-87.19Z"/>
      </g>
    </g>
  </g>
</svg>