<svg xmlns="http://www.w3.org/2000/svg" width="192" height="192" fill="none" viewBox="0 0 192 192"><path fill="#d0d9ff" d="M47 135c-6.509 0-9.763 0-12.44-.683a22 22 0 0 1-15.877-15.876C18 115.763 18 112.509 18 106V86c0-6.509 0-9.763.683-12.44A22 22 0 0 1 34.56 57.682C37.237 57 40.491 57 47 57s9.763 0 12.44.683A22 22 0 0 1 75.318 73.56C76 76.237 76 79.491 76 86v20c0 6.509 0 9.763-.683 12.441a22 22 0 0 1-15.876 15.876C56.763 135 53.509 135 47 135"/><path fill="#b8c0ff" d="M60 156c-14.36 0-26-11.641-26-26V62c0-14.36 11.64-26 26-26h48c14.359 0 26 11.64 26 26v68c0 14.359-11.641 26-26 26z"/><rect width="152" height="106" x="54" y="172" fill="#7473fe" rx="32" transform="rotate(-90 54 172)"/><mask id="c" width="106" height="152" x="54" y="20" maskUnits="userSpaceOnUse" style="mask-type:alpha"><rect width="152" height="106" x="54" y="172" fill="#7372fe" rx="32" transform="rotate(-90 54 172)"/></mask><g filter="url(#a)" mask="url(#c)"><rect width="124" height="100" x="34" y="158" fill="url(#d)" rx="26" transform="rotate(-90 34 158)"/></g><g clip-path="url(#e)"><path fill="#fff" d="M120.644 88.198c4.03 2.19 6.044 3.285 6.881 4.625a6 6 0 0 1 0 6.354c-.837 1.34-2.851 2.435-6.881 4.625l-18.524 10.067c-3.727 2.026-5.591 3.039-7.112 3.041a6 6 0 0 1-5.284-3.142C89 112.431 89 110.31 89 106.067V85.933c0-4.243 0-6.364.724-7.701a6 6 0 0 1 5.284-3.142c1.52.002 3.385 1.015 7.112 3.04z"/></g><defs><linearGradient id="d" x1="96" x2="96" y1="179.77" y2="248.47" gradientUnits="userSpaceOnUse"><stop stop-color="#64afff"/><stop offset="1" stop-color="#7372fe"/></linearGradient><clipPath id="e"><path fill="#fff" d="M77 66h60v60H77z"/></clipPath><filter id="a" width="124" height="148" x="22" y="22" color-interpolation-filters="sRGB" filterUnits="userSpaceOnUse"><feFlood flood-opacity="0" result="BackgroundImageFix"/><feBlend in="SourceGraphic" in2="BackgroundImageFix" result="shape"/><feGaussianBlur result="effect1_foregroundBlur_37425_9746" stdDeviation="6"/></filter></defs></svg>